<?xml version="1.0" encoding="UTF-8"?>
<svg id="Layer_2" data-name="Layer 2" xmlns="http://www.w3.org/2000/svg" viewBox="0 0 329 75.34">
  <defs>
    <style>
      .cls-1 {
        fill: #f68b1f;
      }
    </style>
  </defs>
  <g id="Layer_1-2" data-name="Layer 1">
    <g>
      <g>
        <path class="cls-1" d="M47.13,34.47c-.83-.6-1.69-1.21-2.64-1.77l-6.85-4.04-.02-12.41v-.33C37.62,2.89,29.97.56,27.63.16c-5.57-.96-11.57,2.38-13.37,7.46-1.32,3.69-2.94,13.04,10.3,20.28l7.09,4.19v9.29s-.21,0-.21,0c-9.44,0-16.84,4.89-16.84,11.13,0,4.55,3.93,8.38,9.71,10.13,2.15.65,4.57,1.01,7.13,1.01h6.26v-5.15s-.05-22.87-.05-22.87l3.79,2.24c.72.42,1.44.94,2.24,1.5,7.1,5.09,6.42,11.72,6.39,11.97l-.03.4c0,9.71-9.88,17.6-22.02,17.6s-22.02-7.89-22.02-17.6c0-7.05,5.46-13.54,13.61-16.25l-.04-.04c-2.92-3.08-7.72-3.36-11.01-.67C3.22,39.14,0,45.24,0,51.74c0,13.01,12.57,23.6,28.02,23.6s27.92-10.5,28.02-23.43c.15-1.64.52-10.7-8.91-17.44ZM27.57,22.71l-.09-.05c-6.69-3.65-9.31-8.15-7.57-13.03.83-2.33,4.02-4.02,6.7-3.56,3.18.55,5.01,4.14,5.01,9.85v.08l.02,9.11-4.07-2.4ZM31.44,57.65c-6.11,0-10.84-2.76-10.84-5.14s4.73-5.13,10.84-5.13h.23l.02,10.27h-.25Z"/>
        <polygon class="cls-1" points="34.71 63.65 31.7 63.66 31.7 63.65 34.71 63.65"/>
      </g>
      <g>
        <path d="M78.73,37.13c-.4-.22-.8-.43-1.2-.63l-2.04-1.14,2.51-4.67c1.2-2.23,2.4-4.48,3.62-6.74.08-.12.29-.33.63-.64s.78-.61,1.33-.9c.55-.29,1.2-.45,1.96-.49h.21c.58,0,1.07.07,1.47.21.46.16.78.3.96.42.72.4,1.27.84,1.65,1.32.38.48.63.85.75,1.11-.2.04-.44.13-.73.27-.29.14-.58.35-.88.63-.56.62-.84,1.38-.84,2.28,0,.28.03.58.09.9.24,1.3.68,2.79,1.32,4.49.62,1.58,1.12,3.16,1.51,4.75s.58,3.08.58,4.48c0,.5-.02,1.01-.06,1.53-.28,2.32-1.07,4.58-2.38,6.78-1.31,2.21-2.96,4.04-4.97,5.49-2.01,1.46-4.2,2.22-6.57,2.28-1.68-.02-3.39-.41-5.13-1.17-1.75-.76-3.25-1.86-4.51-3.29-1.26-1.44-1.99-3.16-2.19-5.18-.02-.24-.03-.49-.03-.75,0-1.92.56-3.73,1.68-5.45,1.24-1.94,3.01-3.47,5.33-4.61-.2.82-.3,1.61-.3,2.37,0,.94.16,1.83.48,2.66.56,1.52,1.48,2.58,2.75,3.2.7.32,1.38.48,2.04.48h.12c.7,0,1.29-.07,1.77-.21s.75-.23.81-.27c.22-.06.65-.3,1.29-.73.64-.43,1.23-1.1,1.77-2.02.46-.96.69-2.02.69-3.17,0-.74-.09-1.52-.27-2.33-.48-2.12-1.27-4.59-2.36-7.42-.94,2.06-1.89,4.12-2.84,6.2Z"/>
        <path d="M130.67,41.68c.22.56.33,1.06.33,1.5,0,.08-.02.26-.04.54s-.07.49-.13.63c-.36.72-.95,1.72-1.77,2.99-.46.72-1.17,1.74-2.13,3.07s-2.1,2.67-3.41,4.04c-1.32,1.37-2.74,2.48-4.28,3.34-1.26.7-2.54,1.05-3.86,1.05-.3,0-.6-.02-.9-.06-1.28-.24-2.46-.79-3.53-1.66s-1.86-1.92-2.33-3.16c-.12-.34-.21-.67-.27-.99-1.44,1.7-3.05,3.14-4.85,4.34-1.52,1.02-3.07,1.53-4.67,1.53-.3,0-.6-.02-.9-.06-1.28-.24-2.45-.79-3.53-1.66s-1.86-1.92-2.33-3.16c-.28-.9-.42-1.73-.42-2.48,0-.34.03-.67.09-.99.14-1.56.45-2.89.94-4.01.49-1.12.92-1.97,1.3-2.54.1-.18.18-.33.24-.45l4.97-9.4c1.38-2.65,2.76-5.3,4.16-7.93,1.82.78,3.27,1.86,4.37,3.23,1.1,1.38,1.7,2.9,1.8,4.58v.21c0,.94-.13,1.78-.39,2.51-.26.74-.53,1.33-.81,1.77-1.6,3.19-2.9,5.75-3.92,7.66,0,.02-.01.04-.03.06-.18.32-.36.73-.54,1.23-.08.22-.12.42-.12.6,0,.22.06.42.18.6.12.12.27.2.45.24s.38.07.6.09h.06c1.08,0,2.08-.52,3.01-1.56.93-1.04,1.77-2.17,2.53-3.41v-.03c.12-.18.21-.33.27-.45,1.64-3.13,3.28-6.27,4.94-9.4,1.4-2.65,2.78-5.3,4.16-7.93,1.82.78,3.28,1.86,4.39,3.23,1.11,1.38,1.71,2.9,1.81,4.58v.21c0,.94-.13,1.78-.39,2.51s-.54,1.33-.84,1.77c-1.6,3.19-2.89,5.75-3.89,7.66-.02.02-.03.04-.03.06-.2.32-.39.73-.57,1.23-.06.2-.09.39-.09.57,0,.24.06.45.18.63.12.12.26.2.43.24s.36.07.58.09c1.12,0,2.16-.54,3.11-1.62.96-1.08,1.82-2.23,2.57-3.47.6-.86,1.29-2.12,2.07-3.8.16.1.38.28.67.54.29.26.54.63.76,1.11Z"/>
        <path d="M168.53,41.71c.2.54.3,1.04.3,1.5v.21c-.04.48-.1.8-.18.96-.36.72-.95,1.72-1.77,2.99-.44.72-1.14,1.74-2.1,3.05-.96,1.34-2.11,2.68-3.44,4.04-1.32,1.38-2.74,2.49-4.28,3.35-1.22.68-2.47,1.02-3.74,1.02-.32,0-.65-.02-.99-.06-1.28-.22-2.45-.77-3.53-1.65s-1.86-1.93-2.33-3.14c-.28-.92-.42-1.75-.42-2.48,0-.34.03-.67.09-.99.06-1,.28-2,.66-2.99.38-1,.99-2.33,1.83-4.01.12-.24.24-.47.36-.69.14-.3.28-.59.42-.87,1.06-2.12,1.79-3.69,2.19-4.73.22-.56.33-1.01.33-1.35,0-.3-.08-.52-.24-.66-.14-.14-.3-.23-.48-.27s-.36-.06-.54-.06h-.09c-1.24,0-2.54.74-3.92,2.21-.22.56-.44,1.01-.66,1.35-2.24,4.45-4.46,8.91-6.68,13.38-.74,1.5-1.48,2.98-2.22,4.46-.2.38-.39.76-.57,1.14-.22.48-.45.95-.69,1.41h-.42c-.16.02-.32.03-.48.03-1.76,0-3.27-.6-4.55-1.8-.26-.24-.51-.5-.75-.78-.5-.66-.81-1.3-.94-1.93s-.19-1.12-.19-1.48v-.06c0-.76.07-1.4.21-1.92.12-.48.2-.76.24-.84,1.82-3.59,3.63-7.19,5.45-10.81l5.45-10.84c.34-.64.67-1.29.99-1.95.06-.1.11-.21.15-.33,3.39,1.5,5.43,3.79,6.11,6.88.66-.5,1.53-1.11,2.6-1.83,1.08-.72,2.13-1.32,3.14-1.8.4-.18,1.06-.41,1.98-.69.72-.2,1.53-.3,2.42-.3h.27c.56,0,1.17.05,1.83.15.78.14,1.56.5,2.33,1.08.64.54,1.12,1.12,1.44,1.74.34.62.56,1.18.66,1.68.1.48.15.79.15.93.02.18.03.35.03.51,0,.52-.07,1.03-.21,1.53-.2.68-.54,1.49-1.02,2.42-1.6,3.21-2.9,5.78-3.92,7.69,0,.02-.01.03-.03.03-.18.34-.36.75-.54,1.23-.08.22-.12.42-.12.6,0,.24.06.44.18.6.12.14.27.23.45.27s.37.06.57.06h.06c1.1,0,2.12-.53,3.05-1.59.96-1.08,1.82-2.24,2.57-3.47.6-.86,1.29-2.12,2.07-3.8.16.1.39.28.69.54.28.26.54.63.78,1.11Z"/>
        <path d="M208.01,41.77c.2.54.3,1.04.3,1.5,0,.06-.01.23-.03.52-.02.29-.07.51-.15.67-.36.7-.95,1.7-1.77,2.99-.02.02-.04.05-.06.09-.66,1.08-1.68,2.5-3.05,4.28-1.38,1.78-3.04,3.38-4.98,4.82-1.95,1.44-4.1,2.18-6.45,2.22-.22,0-.47-.01-.75-.03-2.14-.06-3.85-.94-5.15-2.63-.72-1.08-1.09-2.12-1.11-3.14-.74.78-1.69,1.62-2.84,2.53-1.16.91-2.46,1.68-3.89,2.32-1.44.64-2.94.96-4.52.96-.34,0-.82-.06-1.44-.2-.62-.13-1.3-.4-2.04-.82-1.16-.78-1.98-1.69-2.47-2.72-.49-1.04-.79-1.86-.91-2.46-.26-1.02-.39-2.07-.39-3.14,0-2.33.74-5.1,2.21-8.29,1.48-3.19,3.94-6.08,7.39-8.65l1.62-.96c1.06-.64,2.44-1.26,4.16-1.87,1.72-.61,3.59-.92,5.63-.94.6.04,1.12.1,1.56.18l.66.15c2,.5,3.53,1.09,4.61,1.77,1.1-2.12,1.96-3.67,2.6-4.67.26.06.77.28,1.54.66.77.38,1.59.96,2.46,1.74s1.57,1.82,2.11,3.11c.34.94.53,1.8.57,2.57.02.26.03.51.03.75,0,.58-.07,1.16-.19,1.74-.13.58-.27,1.07-.43,1.47-1,2.35-2.12,4.42-3.35,6.2-.68,1.04-1.2,1.92-1.56,2.63-.2.42-.3.78-.3,1.08,0,.2.05.37.15.51.12.12.26.2.43.24.17.04.36.07.58.09h.06c1.1,0,2.12-.54,3.07-1.62.95-1.08,1.8-2.23,2.56-3.47.6-.86,1.29-2.12,2.07-3.77.16.08.38.25.67.51.29.26.55.63.79,1.11ZM181.1,48.84c1.02-.44,2.19-1.51,3.53-3.22,1.34-1.71,2.57-3.44,3.7-5.19,1.13-1.76,1.87-2.94,2.23-3.56.06-.12.13-.36.21-.72.04-.28.06-.57.06-.87,0-.1-.01-.28-.03-.54-.02-.26-.17-.53-.45-.81-.22-.18-.45-.29-.69-.33-.24-.04-.44-.06-.6-.06h-.03c-.88,0-1.91.44-3.1,1.33-1.19.89-2.35,2.03-3.47,3.41-1.13,1.39-2.07,2.87-2.81,4.45-.75,1.58-1.12,3.04-1.12,4.4v.21c0,.18.02.42.08.73.05.31.21.58.49.82.26.16.54.24.84.24.08,0,.24-.02.48-.08.24-.05.47-.12.69-.22Z"/>
        <path d="M248.33,41.77c.2.54.3,1.04.3,1.5,0,.06-.01.23-.03.52-.02.29-.07.51-.15.67-.36.7-.95,1.7-1.77,2.99-.02.02-.04.05-.06.09-.66,1.08-1.68,2.5-3.05,4.28-1.38,1.78-3.04,3.38-4.98,4.82-1.95,1.44-4.1,2.18-6.45,2.22-.22,0-.47-.01-.75-.03-2.14-.06-3.85-.94-5.15-2.63-.72-1.08-1.09-2.12-1.11-3.14-.74.78-1.69,1.62-2.84,2.53s-2.45,1.68-3.89,2.32c-1.44.64-2.94.96-4.52.96-.34,0-.82-.06-1.44-.2-.62-.13-1.3-.4-2.04-.82-1.16-.78-1.98-1.69-2.47-2.72-.49-1.04-.79-1.86-.91-2.46-.26-1.02-.39-2.07-.39-3.14,0-2.33.74-5.1,2.22-8.29,1.48-3.19,3.94-6.08,7.39-8.65l1.62-.96c1.06-.64,2.44-1.26,4.16-1.87,1.72-.61,3.59-.92,5.63-.94.6.04,1.12.1,1.56.18l.66.15c2,.5,3.53,1.09,4.61,1.77,1.1-2.12,1.96-3.67,2.6-4.67.26.06.77.28,1.54.66.77.38,1.59.96,2.46,1.74s1.57,1.82,2.11,3.11c.34.94.53,1.8.57,2.57.02.26.03.51.03.75,0,.58-.07,1.16-.19,1.74-.13.58-.27,1.07-.43,1.47-1,2.35-2.12,4.42-3.35,6.2-.68,1.04-1.2,1.92-1.56,2.63-.2.42-.3.78-.3,1.08,0,.2.05.37.15.51.12.12.26.2.43.24.17.04.36.07.58.09h.06c1.1,0,2.12-.54,3.07-1.62.95-1.08,1.8-2.23,2.56-3.47.6-.86,1.29-2.12,2.07-3.77.16.08.38.25.67.51.29.26.55.63.79,1.11ZM221.42,48.84c1.02-.44,2.2-1.51,3.53-3.22,1.34-1.71,2.57-3.44,3.7-5.19,1.13-1.76,1.87-2.94,2.23-3.56.06-.12.13-.36.21-.72.04-.28.06-.57.06-.87,0-.1-.01-.28-.03-.54-.02-.26-.17-.53-.45-.81-.22-.18-.45-.29-.69-.33-.24-.04-.44-.06-.6-.06h-.03c-.88,0-1.91.44-3.1,1.33-1.19.89-2.35,2.03-3.47,3.41-1.13,1.39-2.07,2.87-2.81,4.45-.75,1.58-1.12,3.04-1.12,4.4v.21c0,.18.03.42.08.73s.21.58.49.82c.26.16.54.24.84.24.08,0,.24-.02.48-.08.24-.05.47-.12.69-.22Z"/>
        <path d="M293.29,16.33c-1.68,3.45-3.35,6.9-5.03,10.33l-9.94,20.42c-.12.3-.2.6-.24.9v.09c0,.26.07.48.21.66.02.04.08.09.19.17.11.07.29.11.52.13.78-.02,1.56-.37,2.35-1.06s1.49-1.44,2.1-2.26c.61-.82,1.02-1.41,1.24-1.77.58-.86,1.27-2.12,2.07-3.8.16.1.38.28.66.54.28.26.54.63.78,1.11.22.52.33.99.33,1.41,0,.1-.02.29-.04.58-.03.29-.08.51-.13.67-.36.72-.95,1.72-1.77,2.99l-.06.12c-.66,1.04-1.66,2.43-3.01,4.18-1.35,1.75-2.97,3.34-4.88,4.77-1.91,1.44-4.01,2.23-6.3,2.37-.42,0-.78-.01-1.08-.03-.3-.02-.49-.03-.57-.03-1.16-.24-2.11-.64-2.84-1.2-.74-.56-1.25-1.06-1.53-1.5-.1-.14-.18-.27-.25-.39-.07-.12-.12-.22-.17-.3l-.06-.12c-.22-.44-.38-.87-.48-1.29-1.22,1.16-2.72,2.25-4.51,3.28-1.79,1.03-3.71,1.55-5.76,1.57-.34,0-.82-.06-1.45-.2-.63-.13-1.3-.4-2.02-.82-1.16-.8-1.98-1.71-2.47-2.74-.49-1.03-.8-1.84-.94-2.44-.24-1-.36-2.03-.36-3.08,0-2.35.73-5.13,2.2-8.34s3.94-6.09,7.41-8.67l1.59-.96c1.06-.64,2.44-1.26,4.16-1.87,1.72-.61,3.59-.92,5.63-.94.62.02,1.15.08,1.59.18l.66.15c1.6.38,2.9.85,3.92,1.41l11.91-24.55c.26.08.74.31,1.45.7.71.39,1.46.97,2.26,1.75.8.78,1.47,1.79,2,3.02.4,1.02.63,1.96.69,2.81.02.36.03.69.03.99,0,.4-.02.75-.06,1.05ZM262.63,48.84c.84-.36,1.82-1.21,2.95-2.54,1.13-1.34,2.22-2.79,3.26-4.36s1.9-2.88,2.56-3.94c.18-.36.35-.73.51-1.11.12-.22.23-.45.33-.69.08-.26.12-.54.12-.84,0-.12-.01-.31-.03-.58-.02-.27-.17-.55-.45-.85-.22-.2-.45-.31-.7-.34-.25-.03-.44-.04-.58-.04h-.06c-.88,0-1.91.44-3.1,1.33-1.19.89-2.34,2.03-3.46,3.41-1.12,1.39-2.06,2.87-2.81,4.45-.76,1.58-1.14,3.04-1.14,4.4v.03c0,.22.03.5.09.85.06.35.23.63.51.85.24.16.5.24.78.24.1,0,.27-.02.52-.06.25-.04.48-.11.7-.21Z"/>
        <path d="M328.7,41.77c.2.54.3,1.04.3,1.5,0,.06-.01.23-.03.52-.02.29-.07.51-.15.67-.36.7-.95,1.7-1.77,2.99-.02.02-.04.05-.06.09-.66,1.08-1.68,2.5-3.05,4.28-1.38,1.78-3.04,3.38-4.98,4.82-1.95,1.44-4.1,2.18-6.45,2.22-.22,0-.47-.01-.75-.03-2.14-.06-3.85-.94-5.15-2.63-.72-1.08-1.09-2.12-1.11-3.14-.74.78-1.69,1.62-2.84,2.53s-2.45,1.68-3.89,2.32c-1.44.64-2.94.96-4.52.96-.34,0-.82-.06-1.44-.2-.62-.13-1.3-.4-2.04-.82-1.16-.78-1.98-1.69-2.47-2.72-.49-1.04-.79-1.86-.91-2.46-.26-1.02-.39-2.07-.39-3.14,0-2.33.74-5.1,2.22-8.29,1.48-3.19,3.94-6.08,7.39-8.65l1.62-.96c1.06-.64,2.44-1.26,4.16-1.87,1.72-.61,3.59-.92,5.63-.94.6.04,1.12.1,1.56.18l.66.15c2,.5,3.53,1.09,4.61,1.77,1.1-2.12,1.96-3.67,2.6-4.67.26.06.77.28,1.54.66.77.38,1.59.96,2.46,1.74s1.57,1.82,2.11,3.11c.34.94.53,1.8.57,2.57.02.26.03.51.03.75,0,.58-.07,1.16-.19,1.74-.13.58-.27,1.07-.43,1.47-1,2.35-2.12,4.42-3.35,6.2-.68,1.04-1.2,1.92-1.56,2.63-.2.42-.3.78-.3,1.08,0,.2.05.37.15.51.12.12.26.2.43.24.17.04.36.07.58.09h.06c1.1,0,2.12-.54,3.07-1.62.95-1.08,1.8-2.23,2.56-3.47.6-.86,1.29-2.12,2.07-3.77.16.08.38.25.67.51.29.26.55.63.79,1.11ZM301.79,48.84c1.02-.44,2.2-1.51,3.53-3.22,1.34-1.71,2.57-3.44,3.7-5.19,1.13-1.76,1.87-2.94,2.23-3.56.06-.12.13-.36.21-.72.04-.28.06-.57.06-.87,0-.1-.01-.28-.03-.54-.02-.26-.17-.53-.45-.81-.22-.18-.45-.29-.69-.33-.24-.04-.44-.06-.6-.06h-.03c-.88,0-1.91.44-3.1,1.33-1.19.89-2.35,2.03-3.47,3.41-1.13,1.39-2.07,2.87-2.81,4.45-.75,1.58-1.12,3.04-1.12,4.4v.21c0,.18.03.42.08.73s.21.58.49.82c.26.16.54.24.84.24.08,0,.24-.02.48-.08.24-.05.47-.12.69-.22Z"/>
      </g>
    </g>
  </g>
</svg>